<svg class="st-c-icon" xmlns="http://www.w3.org/2000/svg" viewBox="0 0 30 24.39">
    <title>icon-twitter</title>
    <path d="M10.43,28.19C21.76,28.19,28,18.81,28,10.68c0-.26,0-.53,0-.8A12.52,12.52,0,0,0,31,6.69a12.13,12.13,0,0,1-3.54,1,6.17,6.17,0,0,0,2.71-3.41,12.4,12.4,0,0,1-3.91,1.5,6.16,6.16,0,0,0-10.49,5.62A17.48,17.48,0,0,1,3.09,4.93,6.16,6.16,0,0,0,5,13.15a6.08,6.08,0,0,1-2.8-.77v.08a6.17,6.17,0,0,0,4.94,6,6.15,6.15,0,0,1-2.78.1,6.16,6.16,0,0,0,5.75,4.27,12.39,12.39,0,0,1-7.64,2.65A12.8,12.8,0,0,1,1,25.43a17.41,17.41,0,0,0,9.43,2.77" transform="translate(-1 -3.81)"/>
</svg>