<svg class="st-c-icon" xmlns="http://www.w3.org/2000/svg" viewBox="0 0 24.27 30">
    <title>icon-pinterest</title>
    <path d="M16.41,1C8.22,1,3.86,6.27,3.86,12c0,2.66,1.48,6,3.86,7,.36.16.56.09.64-.24s.38-1.48.53-2.06a.53.53,0,0,0-.13-.52,6.85,6.85,0,0,1-1.41-4.15c0-4,3.17-7.9,8.57-7.9,4.67,0,7.93,3,7.93,7.4,0,4.92-2.59,8.33-6,8.33a2.68,2.68,0,0,1-2.81-3.29c.53-2.17,1.58-4.49,1.58-6.06A2.32,2.32,0,0,0,14.25,8c-1.9,0-3.44,1.89-3.44,4.42a6.34,6.34,0,0,0,.57,2.7s-1.88,7.62-2.22,9c-.59,2.41.08,6.31.14,6.65a.2.2,0,0,0,.36.09,23.65,23.65,0,0,0,3.09-5.85l1.18-4.33a5.15,5.15,0,0,0,4.35,2.08c5.72,0,9.86-5,9.86-11.31C28.11,5.49,23,1,16.41,1" transform="translate(-3.86 -1)"/>
</svg>