<svg class="st-c-icon" xmlns="http://www.w3.org/2000/svg" viewBox="0 0 30 30">
    <title>icon-instagram</title>
    <path d="M30.21,6.17a7.33,7.33,0,0,0-1.73-2.65,7.33,7.33,0,0,0-2.65-1.73,11,11,0,0,0-3.64-.7C20.59,1,20.08,1,16,1s-4.59,0-6.19.09a10.88,10.88,0,0,0-3.64.7A7.33,7.33,0,0,0,3.52,3.52,7.33,7.33,0,0,0,1.79,6.17a11,11,0,0,0-.7,3.64C1,11.41,1,11.92,1,16s0,4.59.09,6.19a10.88,10.88,0,0,0,.7,3.64,7.33,7.33,0,0,0,1.73,2.65,7.33,7.33,0,0,0,2.65,1.73,11,11,0,0,0,3.64.7c1.6.07,2.11.09,6.19.09s4.59,0,6.19-.09a10.88,10.88,0,0,0,3.64-.7,7.65,7.65,0,0,0,4.38-4.38,11,11,0,0,0,.7-3.64C31,20.59,31,20.08,31,16s0-4.59-.09-6.19A10.88,10.88,0,0,0,30.21,6.17Zm-2,15.89a8.2,8.2,0,0,1-.52,2.78,4.65,4.65,0,0,1-1.12,1.73,4.7,4.7,0,0,1-1.73,1.12,8.27,8.27,0,0,1-2.78.52c-1.59.07-2.05.09-6.06.09s-4.49,0-6.06-.09a8.2,8.2,0,0,1-2.78-.52,4.65,4.65,0,0,1-1.73-1.12,4.7,4.7,0,0,1-1.12-1.73,8.27,8.27,0,0,1-.52-2.78C3.7,20.47,3.68,20,3.68,16s0-4.49.09-6.06a8.2,8.2,0,0,1,.52-2.78A4.65,4.65,0,0,1,5.42,5.43,4.7,4.7,0,0,1,7.14,4.3a8.27,8.27,0,0,1,2.78-.52C11.51,3.71,12,3.69,16,3.69s4.49,0,6.06.09a8.2,8.2,0,0,1,2.78.52,4.65,4.65,0,0,1,1.73,1.12,4.7,4.7,0,0,1,1.12,1.73,8.27,8.27,0,0,1,.52,2.78c.07,1.59.09,2.06.09,6.06S28.28,20.49,28.21,22.06Z" transform="translate(-1 -1)"/>
    <path d="M16,8.29A7.71,7.71,0,1,0,23.7,16,7.71,7.71,0,0,0,16,8.29ZM16,21a5,5,0,1,1,5-5A5,5,0,0,1,16,21Z" transform="translate(-1 -1)"/>
    <circle cx="23" cy="6.99" r="1.8"/>
</svg>