<svg id="bc14a553-041f-4b9d-a8ce-577d03f2edf1" data-name="Layer 1" xmlns="http://www.w3.org/2000/svg" viewBox="0 0 1178.32 279.79"><title>Logo</title><path d="M397.84,117.83a16.48,16.48,0,0,0-3.58-3,31.77,31.77,0,0,0-5-2.63,35.4,35.4,0,0,0-6.1-1.91,32,32,0,0,0-6.88-.72q-9.29,0-13.6,3.47a11.55,11.55,0,0,0-4.31,9.51,10.6,10.6,0,0,0,1.23,5.37,10.15,10.15,0,0,0,3.86,3.64,29.42,29.42,0,0,0,6.55,2.63q3.92,1.12,9.29,2.35a97.39,97.39,0,0,1,11.13,3.08,32.41,32.41,0,0,1,8.5,4.31,17.27,17.27,0,0,1,5.37,6.26,20.14,20.14,0,0,1,1.85,9.07,20.77,20.77,0,0,1-2.24,9.9,19.86,19.86,0,0,1-6.1,6.94,26.44,26.44,0,0,1-9.12,4,48.13,48.13,0,0,1-11.41,1.29,52.73,52.73,0,0,1-17.4-2.85,48.63,48.63,0,0,1-14.94-8.34l4.81-8.51a26.49,26.49,0,0,0,4.64,3.81,37.77,37.77,0,0,0,6.49,3.41,47.31,47.31,0,0,0,7.83,2.46,39.39,39.39,0,0,0,8.78,1q8.5,0,13.21-3a11.17,11.17,0,0,0,3.19-14.72,12.86,12.86,0,0,0-4.42-4,34,34,0,0,0-7.22-3q-4.31-1.29-9.79-2.63a97.22,97.22,0,0,1-10.63-3.14,28.86,28.86,0,0,1-7.67-4,15.19,15.19,0,0,1-4.65-5.7,19,19,0,0,1-1.57-8.06A22.72,22.72,0,0,1,350.06,114a21.16,21.16,0,0,1,5.93-7.39,25.8,25.8,0,0,1,9.06-4.53,41.11,41.11,0,0,1,37.49,7.55Z"/><path d="M503.82,110.1H476.4v70.5H466.33V110.1H438.91v-9h64.91Z"/><path d="M559.1,101.15h8.51l32.45,79.45H589.31l-9.4-23.28H546.57l-9.29,23.28H526.53Zm18.58,48.34-14.32-36.71-14.77,36.71Z"/><path d="M648,120V180.6H637.88V101.15h7.83L695,163V101.26H705V180.6h-8.51Z"/><path d="M751.24,180.6V101.15h27.53a41.74,41.74,0,0,1,16.73,3.13,34.15,34.15,0,0,1,12,8.51,35.42,35.42,0,0,1,7.22,12.59,48.38,48.38,0,0,1,2.41,15.39,47.38,47.38,0,0,1-2.69,16.39,35.18,35.18,0,0,1-7.72,12.53,34.6,34.6,0,0,1-12.15,8.06,42.15,42.15,0,0,1-15.83,2.85ZM807,140.77a39.61,39.61,0,0,0-1.84-12.37,26.5,26.5,0,0,0-5.48-9.68,25.63,25.63,0,0,0-8.9-6.33,29.73,29.73,0,0,0-12-2.29H761.31v61.55h17.46a29.75,29.75,0,0,0,12.14-2.35,24.29,24.29,0,0,0,8.84-6.49,28.59,28.59,0,0,0,5.37-9.79A39.23,39.23,0,0,0,807,140.77Z"/><path d="M858.56,180.6V101.15h10.07V180.6Z"/><path d="M914.85,180.6V101.15h52.49v9H924.92v26.52h35.7V145h-35.7V180.6Z"/><path d="M1010.3,101.15l24.06,41.41,24.28-41.41h11l-30.22,50.47v29h-10.07V151.39l-30.1-50.24Z"/><path d="M159.57,23.79A111.25,111.25,0,1,0,270.82,135,111.25,111.25,0,0,0,159.57,23.79Zm50.74,100.62,0,38.27-67.22,40.65.05-39.53-34.53-19.64.08-39.68,68.4-37.55,0,38.32h0l33.25,19.16-.71-.41.72.41h0Z"/></svg>